<?xml version="1.0" encoding="UTF-8"?>
<svg id="Layer_1" xmlns="http://www.w3.org/2000/svg" width="800" height="800" version="1.1" viewBox="0 0 800 800">
  <!-- Generator: Adobe Illustrator 29.4.0, SVG Export Plug-In . SVG Version: 2.1.0 Build 152)  -->
  <defs>
    <style>
      .st0 {
        fill: #999;
        isolation: isolate;
        opacity: .9;
      }
    </style>
  </defs>
  <path class="st0" d="M584.1,359.6c-43,0-61.1,39-63.9,67.3h121c.6-25.4-10.7-67.3-57.1-67.3h0ZM257.8,268h-1.1c-5.7,22.1-11.3,48.6-18.1,71.3l-29.4,93.9h97.9l-30-93.9c-7.3-23.2-13.6-49.2-19.2-71.3h0ZM666.1.8H133.9C60.7.8.8,60.7.8,133.9v532.3c0,73.2,59.9,133.1,133.1,133.1h532.3c73.2,0,133.1-59.9,133.1-133.1V133.9c-.1-73.2-60-133.1-133.2-133.1ZM353.4,593.8l-34.5-108h-121l-32.8,108h-71.8l122.2-381.2h88.8l123.9,381.2h-74.8ZM704.6,475.6h-184.4c1.7,49.8,40.7,71.3,84.8,71.3s55.4-4.5,76.4-12.4l10.2,48.1c-23.8,9.6-56.6,17-96.2,17-89.4,0-142-54.9-142-139.1s46.4-148.2,134.6-148.2,118.8,73.5,118.8,134-1.1,23.2-2.3,29.4h0Z"/>
</svg>