<?xml version="1.0" encoding="UTF-8"?>
<svg id="Layer_1" xmlns="http://www.w3.org/2000/svg" width="800" height="800" version="1.1" viewBox="0 0 800 800">
  <!-- Generator: Adobe Illustrator 29.4.0, SVG Export Plug-In . SVG Version: 2.1.0 Build 152)  -->
  <defs>
    <style>
      .st0 {
        fill: #999;
        opacity: .5;
      }
    </style>
  </defs>
  <path class="st0" d="M355.6,340.6l30,93.9h-97.9l29.4-93.9c6.8-22.6,12.4-49.2,18.1-71.3h1.1c5.7,22.1,11.9,48.1,19.2,71.3ZM799.2,133.9v532.3c0,73.2-59.9,133.1-133.1,133.1H133.9c-73.2,0-133.1-59.9-133.1-133.1V133.9C.8,60.7,60.7.8,133.9.8h532.3c73.2,0,133.1,59.9,133.1,133.1ZM506.6,595.1l-123.9-381.2h-88.8l-122.2,381.2h71.8l32.8-108h121l34.5,108h74.7ZM624.2,319.7h-70.1v275.5h70.1v-275.5ZM628.2,242.8c-.6-21.5-15.3-37.9-39-37.9s-39,16.4-39,37.9,15.3,37.3,38.5,37.3c24.3,0,39.6-16.4,39.6-37.3Z"/>
</svg>