<?xml version="1.0" encoding="UTF-8"?>
<svg id="Layer_1" xmlns="http://www.w3.org/2000/svg" width="800" height="800" version="1.1" viewBox="0 0 800 800">
  <!-- Generator: Adobe Illustrator 29.4.0, SVG Export Plug-In . SVG Version: 2.1.0 Build 152)  -->
  <defs>
    <style>
      .st0 {
        fill: #999;
        opacity: .5;
      }
    </style>
  </defs>
  <path class="st0" d="M216.3,564.1h68.6l37-91.1h156.2l37,91.1h68.6l-183.6-407.1-183.7,407.1ZM346.2,416.8l53.8-127.6,53.8,127.6h-107.6Z"/>
  <path class="st0" d="M666,1H134.1C60.9,1,1,60.9,1,134.1v531.9c0,73.2,59.9,133.1,133.1,133.1h531.9c73.2,0,133.1-59.9,133.1-133.1V134c0-73.2-59.9-133-133-133ZM649.5,575.7l-249.5,136.3-249.4-136.4-44.9-384,294.3-103.5h0s294.3,103.6,294.3,103.6l-44.8,384.1Z"/>
</svg>