<?xml version="1.0" encoding="UTF-8"?>
<svg id="Layer_1" xmlns="http://www.w3.org/2000/svg" width="800" height="800" version="1.1" viewBox="0 0 800 800">
  <!-- Generator: Adobe Illustrator 29.4.0, SVG Export Plug-In . SVG Version: 2.1.0 Build 152)  -->
  <defs>
    <style>
      .st0 {
        fill: #999;
        isolation: isolate;
        opacity: .9;
      }
    </style>
  </defs>
  <path class="st0" d="M399.8,284h9.3l-9.3,3.8-159.6,66.5,5.3,65.8,154.3.5,82.7.2-5.3,87.7-77.4,21.8h-.6c0,.1-74.8-18.7-74.8-18.7l-4.5-54.5h-69.8l9.1,105.1,140.6,41.6h.3l139.8-40.8,18.2-208.7h-158.7l.4-.2,164.1-70.1,6.8-67.3H225.9l8.3,67.3h165.6ZM666,1H134.1C60.9,1,1,60.9,1,134.1v531.9c0,73.2,59.9,133.1,133.1,133.1h531.9c73.2,0,133.1-59.9,133.1-133.1V134c0-73.2-59.9-133-133-133h0ZM622.9,660.6l-222.9,60-222.9-60L125.6,103.4h548.7l-51.5,557.3h.1Z"/>
</svg>