<?xml version="1.0" encoding="UTF-8"?>
<svg id="Layer_1" xmlns="http://www.w3.org/2000/svg" width="800" height="800" version="1.1" viewBox="0 0 800 800">
  <!-- Generator: Adobe Illustrator 29.4.0, SVG Export Plug-In . SVG Version: 2.1.0 Build 152)  -->
  <defs>
    <style>
      .st0 {
        fill: #999;
        isolation: isolate;
        opacity: .9;
      }
    </style>
  </defs>
  <path class="st0" d="M666.1.8H133.9C60.7.8.8,60.7.8,133.9v532.3c0,73.2,59.9,133.1,133.1,133.1h532.3c73.2,0,133.1-59.9,133.1-133.1V133.9C799.3,60.7,739.4.8,666.2.8h-.1ZM386.4,590c0,45-36.5,81.4-81.4,81.4s-81.4-36.5-81.4-81.4,36.5-81.4,81.4-81.4h81.4v81.4ZM386.4,481.4h-81.4c-45,0-81.4-36.5-81.4-81.4s36.5-81.4,81.4-81.4h81.4v162.9h0ZM495,481.4c-45,0-81.4-36.5-81.4-81.4s36.5-81.4,81.4-81.4,81.4,36.5,81.4,81.4-36.5,81.4-81.4,81.4h0ZM495,291.4h-190c-45,0-81.4-36.5-81.4-81.4s36.5-81.4,81.4-81.4h190c45,0,81.4,36.5,81.4,81.4s-36.5,81.4-81.4,81.4h0Z"/>
</svg>