<?xml version="1.0" encoding="UTF-8"?>
<svg id="Layer_1" xmlns="http://www.w3.org/2000/svg" width="800" height="800" version="1.1" viewBox="0 0 800 800">
  <!-- Generator: Adobe Illustrator 29.4.0, SVG Export Plug-In . SVG Version: 2.1.0 Build 152)  -->
  <defs>
    <style>
      .st0 {
        fill: #999;
        opacity: .5;
      }
    </style>
  </defs>
  <path class="st0" d="M666.1.8H133.9C60.7.8.8,60.7.8,133.9v532.3c0,73.2,59.9,133.1,133.1,133.1h166.4v-70.1c-16.8,6.2-34.6,9.4-52.5,9.5-26.8,0-56-7.5-84.2-28.7l-3.6-3.1c-21.5-21.5-32.2-37.7-40.8-50.7-11.6-17.6-17.4-26.4-50.6-43-16.5-8.2-23.2-28.3-14.9-44.7s28.3-23.2,44.7-14.9c45.8,22.9,60,41,76.5,66,7.3,11.2,14.9,22.7,30.4,38.5,43.9,31.3,86.9,2,91.8-1.5,1-.7,2.1-1.2,3.1-1.8v-21.3c0-14.3,3.1-28.4,9-41.3-13.8-2.8-27.5-6-41.2-10-42.1-12.4-102.6-64-120.4-114.4-19.8-56-19.8-112.7,0-168.6,3.6-10.1,9-20.2,16.6-31.2-14.1-52.6-4.2-96.5-3.8-98.6l6.1-26.1,26.8.3c2.5,0,58,1,112.1,32.6,62.6-12.2,126.9-12.2,189.5,0,54.1-31.5,109.6-32.5,112.1-32.6l26.8-.3,6.1,26.1c.5,2,10.4,46-3.7,98.6,7.7,11,13.1,21.1,16.6,31.1h0c19.8,56,19.8,112.7,0,168.6-17.9,50.4-78.3,102-120.4,114.4-13.7,4-27.5,7.2-41.2,10,5.8,12.6,9,26.6,9,41.3v166h165.9c73.2,0,133.1-59.9,133.1-133.1V133.9C799.2,60.7,739.3.8,666.1.8Z"/>
</svg>