<?xml version="1.0" encoding="UTF-8"?>
<svg id="Layer_1" xmlns="http://www.w3.org/2000/svg" width="800" height="800" version="1.1" viewBox="0 0 800 800">
  <!-- Generator: Adobe Illustrator 29.4.0, SVG Export Plug-In . SVG Version: 2.1.0 Build 152)  -->
  <defs>
    <style>
      .st0 {
        fill: #999;
        isolation: isolate;
        opacity: .9;
      }
    </style>
  </defs>
  <path class="st0" d="M265.5,485.3h208.3l-7,77.9-67,18.1h0l-66.9-18.1-4.3-47.9h-60.3l8.4,94.4,123.1,34.1h.3c0,0,123-34.1,123-34.1l.9-10.2,14.1-158.2,1.5-16.1h-219l-5.5-61.6h229.9l1.2-13.5,2.8-30.4,1.4-16.1H249.3l1.5,16.1,14.7,165.6ZM666.1.8H133.9C60.7.8.8,60.7.8,133.9v532.3c0,73.2,59.9,133.1,133.1,133.1h532.3c73.2,0,133.1-59.9,133.1-133.1V133.9C799.3,60.7,739.4.8,666.2.8h-.1ZM522.7,70.3h30.5v61.2h42.9v30.2h-73.5v-91.4h0ZM436.5,70.3l19.6,32.1,19.6-32.1h31.9v91.4h-30.4v-45.3l-21,32.5h-.5l-21-32.5v45.3h-29.9v-91.4h31.8-.1ZM306.9,70.3h84.3v30.3h-26.9v61.1h-30.5v-61.1h-26.9v-30.3h0ZM235.2,70.3v30.2h27.9v-30.2h30.5v91.4h-30.5v-30.6h-27.9v30.6h-30.5v-91.4h30.5,0ZM596.3,693.3l-196.6,54.5-196-54.4-43.7-489.9h480l-43.7,489.9h0Z"/>
</svg>