<?xml version="1.0" encoding="UTF-8"?>
<svg id="Layer_1" xmlns="http://www.w3.org/2000/svg" width="800" height="800" version="1.1" viewBox="0 0 800 800">
  <!-- Generator: Adobe Illustrator 29.4.0, SVG Export Plug-In . SVG Version: 2.1.0 Build 152)  -->
  <defs>
    <style>
      .st0 {
        fill: #999;
        opacity: .5;
      }
    </style>
  </defs>
  <polygon class="st0" points="265.5 485.3 399.8 485.3 400 485.3 473.8 485.3 466.8 563.2 399.8 581.3 399.8 581.3 399.7 581.3 332.8 563.2 328.5 515.3 296 515.3 268.2 515.3 276.6 609.7 399.7 643.8 400 643.7 400 643.7 523 609.7 523.9 599.5 538 441.3 539.5 425.2 523.3 425.2 400 425.2 399.8 425.2 320.5 425.2 315 363.6 399.8 363.6 400 363.6 544.7 363.6 544.9 363.6 546.1 350.1 548.9 319.7 550.3 303.6 400 303.6 399.8 303.6 249.3 303.6 250.8 319.7 265.5 485.3"/>
  <path class="st0" d="M666.1.8H133.9C60.7.8.8,60.7.8,133.9v532.3c0,73.2,59.9,133.1,133.1,133.1h532.3c73.2,0,133.1-59.9,133.1-133.1V133.9c0-73.2-59.9-133.1-133.1-133.1ZM522.7,70.3h30.5v61.2h42.9v30.2h-73.5v-91.4ZM436.5,70.3l19.6,32.1,19.6-32.1h31.9v91.4h-30.4v-45.3l-21,32.5h-.5l-21-32.5v45.3h-29.9v-91.4h31.8ZM306.9,70.3h84.3v30.3h-26.9v61.1h-30.5v-61.1h-26.9v-30.3ZM235.2,70.3v30.2h27.9v-30.2h30.5v91.4h-30.5v-30.6h-27.9v30.6h-30.5v-91.4h30.5ZM596.3,693.3l-196.6,54.5-196-54.4-43.7-489.9h0s480,0,480,0l-43.7,489.9Z"/>
</svg>