<?xml version="1.0" encoding="UTF-8"?>
<svg id="Layer_1" xmlns="http://www.w3.org/2000/svg" width="800" height="800" version="1.1" viewBox="0 0 800 800">
  <!-- Generator: Adobe Illustrator 29.4.0, SVG Export Plug-In . SVG Version: 2.1.0 Build 152)  -->
  <defs>
    <style>
      .st0 {
        fill: #999;
        isolation: isolate;
        opacity: .9;
      }
    </style>
  </defs>
  <path class="st0" d="M666,1H134.1C60.9,1,1,60.9,1,134.1v531.9c0,73.2,59.9,133.1,133.1,133.1h531.9c73.2,0,133.1-59.9,133.1-133.1V134c0-73.2-59.9-133-133-133h0ZM433,686c-15,15.1-38.5,23.9-67.6,23.9-47.6,0-74-23.2-90.9-55.3,16.2-10.4,32.8-20.4,49.8-30.1,6.9,19.3,30.2,41,56.5,27.6,16.7-8.5,14.7-34.2,14.7-62v-176.9c0-.9-.1-1.7.6-1.8h59.6v148.7c0,49.5,3.8,99.1-22.7,125.9h0ZM699.6,632.5c-3.4,50.5-44.6,77.2-100.1,77.4-54.5.2-89.3-24-110.6-61.4,15.3-10.5,32.6-19,48.5-28.9,12.7,19.9,34.8,39.1,67.6,36.2,20.4-1.8,44.1-18.4,30.7-43.6-6.5-12.2-22.1-18.4-36.2-24.6-44.7-19.5-97.2-37.4-92.1-107.5,1.7-23.4,12.5-39.9,26.4-51.6,14.3-12,33.5-20.1,59-20.9,46.3-1.5,71.7,19.1,89.1,47.9-14.8,11.2-31,21-47.3,30.7-5.3-16.4-31.2-32.5-52.8-22.7-9.9,4.4-18.7,17.4-13.5,33.2,4.6,14.1,23.5,21.8,38.7,28.3,46,19.7,97.3,38.9,92.8,107.5h-.2Z"/>
</svg>