<?xml version="1.0" encoding="UTF-8"?>
<svg id="Layer_1" xmlns="http://www.w3.org/2000/svg" width="800" height="800" version="1.1" viewBox="0 0 800 800">
  <!-- Generator: Adobe Illustrator 29.4.0, SVG Export Plug-In . SVG Version: 2.1.0 Build 152)  -->
  <defs>
    <style>
      .st0 {
        fill: #999;
        opacity: .5;
      }
    </style>
  </defs>
  <path class="st0" d="M666,1H134.1C60.9,1,1,60.9,1,134.1v531.9c0,73.2,59.9,133.1,133.1,133.1h531.9c73.2,0,133.1-59.9,133.1-133.1V134c0-73.2-59.9-133-133-133ZM521.2,669.7h-78.5l69.7-416-147.4,416h-78.5l69.7-382.5-147.3,382.5h-78.6l68.6-356.7-68.6-182.8h78.6l147.4,141.6-69.7-141.6h78.6l147.4,108.1-69.7-108.1h78.5l148.6,82.6-148.6,456.9Z"/>
</svg>