<?xml version="1.0" encoding="UTF-8"?>
<svg id="Layer_1" xmlns="http://www.w3.org/2000/svg" width="800" height="800" version="1.1" viewBox="0 0 800 800">
  <!-- Generator: Adobe Illustrator 29.4.0, SVG Export Plug-In . SVG Version: 2.1.0 Build 152)  -->
  <defs>
    <style>
      .st0 {
        fill: #999;
        opacity: .5;
      }
    </style>
  </defs>
  <path class="st0" d="M547.5,456.5h-34.2c-10,0-16.6,4.4-16.6,11.2v51.1c0,.7.2,1.5.4,2.3,1.3,6.2,7.2,9.7,16.1,9.7h20.5l-18.9-17h26.3l16.5,14.9c3-1.6,5-4.1,5.7-7.3.2-.7.2-1.5.2-2.2v-51.5c0-.6,0-1.3-.2-2-1.3-5.8-7.2-9.1-15.9-9.1Z"/>
  <path class="st0" d="M730.9,525.8c0-2.2-2.3-2.6-4.2-2.6h-3.7v5.5h3.4c2.4,0,4.5-.2,4.5-2.9Z"/>
  <path class="st0" d="M666,1H134.1C60.9,1,1,60.9,1,134.1v531.9c0,73.2,59.9,133.1,133.1,133.1h531.9c73.2,0,133.1-59.9,133.1-133.1V134c0-73.2-59.9-133-133-133ZM213.6,545.6h-22.6v-89.3l-35,77.8c-4.1,9.4-9.6,12.8-20.7,12.8s-16.7-3.3-20.9-12.8l-35-77.8v89.3h-22.6v-89.1c0-8.7,3.5-12.9,10.7-15.1,17.2-5.4,28.9-.7,33.9,10.9l33.3,76.8,34.3-76.8c5.2-11.6,16.7-16.2,33.9-10.9,7.2,2.2,10.7,6.4,10.7,15.1v89.1ZM340.1,552.9c.1,19.7-24.4,24-35.8,24.3h-71.4v-15.2c.1,0,71.3,0,71.5,0,14.6-1.5,12.8-8.8,12.8-11.2v-5.9h-48.1c-22.4-.2-36.6-10-36.8-21.2,0-1,.5-50.2,0-50.7h22.6v49.2c-.2,2.7.9,8.9,13.2,9.1,6.3.1,48.8,0,49.2,0v-58.6h0s22.7,0,22.7,0c.1,0,0,79.9,0,80.2ZM458.8,456.3h-64.6c-.7,0-1.5.1-2.2.1-8,.7-10.4,2-11.5,6.7-.2.7-.2,1.3-.2,1.9v10.3c0,.7,0,1.3.2,2,1.1,6.1,5.4,8.8,14.6,8.8h27.4c6.7,0,13.7,1.2,19.4,3.3,10.6,4.1,16.1,10.1,16.1,16.7v16.5c0,8-4.8,14.1-14.6,18.6-5.9,2.8-13.3,4.3-20.9,4.3h-65v-15.1h62.4c.9,0,1.5-.1,2.4-.1,4.3-.3,7.6-1.5,9.6-3.2,2.2-1.7,3.3-3.8,3.3-5.4v-13.2c0-1.4-.4-2.8-1.7-4.1-2.2-2.6-5.2-3.9-12.4-4.5-.7-.1-1.5-.1-2.4-.1h-23.5c-2.2,0-4.3-.1-6.5-.3-19.3-2-30.9-10.7-30.9-20.9v-13.2c0-11.6,5.9-18.3,19.3-22.5,4.3-1.3,9.1-1.9,18.3-1.9h63.5v15.1ZM567.3,561.1l-18-16.3-18.1,1.2h-24.2c-4.1,0-8.5-.6-13.3-1.9-14.4-3.9-21.3-11.5-21.3-24v-53.7c0-13.7,9.6-21.9,28.5-24.5,2-.3,4.1-.4,6.1-.4h42.9c2.2,0,4.1.1,6.3.4,18.9,2.6,28.5,10.9,28.5,24.5v53.7c0,11.1-4.1,17-13.4,20.9l22.3,20.1h-26.3ZM699.2,545.6h-58.9c-2.2,0-4.4-.1-6.5-.3-23.3-1.7-34.8-10.4-34.8-25.9v-78.1h22.6v78c0,8,5,11.3,18.3,11.3h59.3v15.1ZM690.2,441.5c-3.3-2.5-6.9-7.2-9.1-10.7-1.1-1.8-1.4-4-2.8-5.5.4-3.2,4.5-3.3,7.1-4.3,9.1-3.8,19.7-5.1,33.6-4.7-.4-3.6-9-7.9-11.9-9.9-5.6-4-11.4-8.2-17.4-11.9-3.1-1.9-8.5-3.3-11.8-4.7-4.7-2-15.1-3.9-17.8-7.5-5.1-6.8-8.6-15.1-12.2-23.3-3.6-8.2-8.2-16.9-11.9-25.3-1.8-4.2-2.7-7.9-4.7-11.9-12.7-24.4-31.4-44.9-54.1-59.3-7.5-4.7-15.7-9.1-24.9-11.9-5.2-1.6-11.4-.7-17-2h-3.6c-3.1-.9-5.7-4.2-8.3-5.9-5.4-3.6-10.7-6.1-17-8.7-2.4-1-8.8-3.3-11.1-1.6-1.3.4-2,1-2.4,2.4-1.3,2-.1,5.2.8,7.1,2.5,5.5,6.2,8.9,9.5,13.4,3,4.1,6.6,8.8,8.7,13.4,4.5,9.7,6.4,20.4,10.7,30,1.6,3.7,4,7.9,6.3,11.1,1.9,2.6,5.3,4.5,6.3,7.9,2.2,3.4-3.2,14.9-4.3,18.6-4.6,14.2-3.6,33.9,1.6,46.2,2,4.9,4,10.5,9.5,11.9.4-.3.1-.1.8-.4,1.2-9.5,1.6-18.6,4.7-26.1,2-4.7,5.7-7.9,8.3-11.9,1.9,1.1,1.9,4.2,2.8,6.3,2.3,5.4,4.7,11.3,7.5,16.6,5.8,11.1,12.2,21.8,19.4,31.6,2.6,3.5,6,7.2,9.1,10.3,1.3,1.3,2.9,2,3.9,3.6h.4v.4c-5.3-1.8-8.5-7.2-12.6-10.3-7.9-6-17.3-14.8-22.5-23.3-2.4-4.7-4.7-9.5-7.1-14.2v-.4c-1,1.3-.7,2.8-1.2,4.7-2.2,8.7-.5,18.6-8.3,21.7-8.9,3.6-15.4-5.8-18.2-10.3-9-14.4-11.3-38.6-5.1-58.1,1.4-4.3,1.5-9.6,3.9-13-.4-3.1-2.9-3.9-4.3-5.9-2.4-3.2-4.4-7.1-6.3-10.7-3.7-7.2-6.2-15.6-9.1-23.3-1.2-3.1-1.4-6.1-2.8-9.1-2.1-4.5-5.8-9-8.7-13-4.1-5.7-15.7-16.8-11.1-28.1,7.3-17.9,32.8-4.3,42.7,2,2.5,1.6,5.2,4.8,7.9,5.9,4.3.3,8.7.5,13,.8,8.1,1.9,15.8,3.4,22.1,7.1,29.9,17.5,49.2,35.3,67.2,64.8,3.7,6.1,5.7,12.9,8.7,19.8,4.4,10.1,9.3,20.5,14.2,30,2.4,4.6,4,9.5,7.1,13.4,1.3,1.7,4.8,2.2,6.7,3.2,5.8,3,12.7,5.2,18.2,8.7,9.9,6.3,19.6,13.8,28.5,21.3,3.4,2.9,5.6,7.1,8.7,10.3v1.6c-2.8.8-5.5,1.6-8.3,2.4-6.1,1.6-11.4,1.2-17.4,2.8-3.5.9-8,2.3-11.9,2.8.1.1.3.3.4.4,2.3,6.3,14.4,11.5,19.8,15.4,6.8,4.9,13.2,10.7,18.2,17.4,1.7,1.7,3.4,3.4,5.1,5.1,1.2,1.7,1.5,3.9,2.8,5.5v.4c-2.4-.9-3.7-3-5.5-4.3-3.8-2.8-7.6-5.8-11.5-8.3-6.5-4.2-14.1-6.5-20.9-10.7-3.8-2.3-7.5-5.2-11.1-7.9ZM549.2,273.2c0,4.2-1.1,7-3.6,8.7-.1.1-.3.3-.4.4-1.3-2.8-2.6-5.5-3.9-8.3-1.7-2.4-4.1-4.3-5.5-7.1h-.4v-.4c2.2-.5,4.2-.8,7.1-.8,1.4,1.4,3.6,2.3,4.7,4,.8,1.2,1,2.5,2,3.6ZM726.5,546.8c-8.8,0-16.7-6.7-16.7-16.7s7.9-16.7,16.7-16.7,16.7,6.7,16.7,16.7-7.9,16.7-16.7,16.7Z"/>
  <path class="st0" d="M726.5,516.9c-7.2,0-12.9,5.6-12.9,13.2s5.7,13.2,12.9,13.2c7.2,0,12.9-5.6,12.9-13.2s-5.8-13.2-12.9-13.2ZM730.9,539.6l-5-8.2h-3v8.2h-3.2v-19h7.4c4.7,0,7.2,1.6,7.2,5.5s-2.2,4.9-5.2,5.2l5.5,8.4h-3.7Z"/>
</svg>