<?xml version="1.0" encoding="UTF-8"?>
<svg id="Layer_1" xmlns="http://www.w3.org/2000/svg" width="800" height="800" version="1.1" viewBox="0 0 800 800">
  <!-- Generator: Adobe Illustrator 29.4.0, SVG Export Plug-In . SVG Version: 2.1.0 Build 152)  -->
  <defs>
    <style>
      .st0 {
        fill: #999;
        isolation: isolate;
        opacity: .9;
      }
    </style>
  </defs>
  <path class="st0" d="M666.1.8H133.9C60.7.8.8,60.7.8,133.9v532.3c0,73.2,59.9,133.1,133.1,133.1h532.3c73.2,0,133.1-59.9,133.1-133.1V133.9C799.3,60.7,739.4.8,666.2.8h-.1ZM383.3,407.1c-27.7,27.7-71.3,40.7-120.5,40.7s-24.9-.6-33.9-2.3v143.7h-69V213.1c24.9-4.5,59.4-7.9,106.3-7.9s88.2,10.7,112.6,31.1c22.6,18.7,37.3,48.6,37.3,84.3s-11.3,66.2-32.8,86.5h0ZM528.1,594.9c-33.4,0-63.3-7.9-83.7-19.2l13.6-50.3c15.8,9.6,45.8,19.8,70.7,19.8s44.1-12.4,44.1-30.5-11.3-28.3-45.2-40.2c-53.7-18.7-76.4-48.1-75.8-80.3,0-48.6,40.2-86.5,104.1-86.5s57.1,7.9,73,16.4l-13.6,49.2c-11.9-6.8-33.9-15.8-58.3-15.8s-38.5,11.9-38.5,28.8,13,26,48.1,38.5c49.8,18.1,73,43.5,73.5,84.3,0,49.8-39,86-112,86v-.2ZM346.6,323.4c0,44.7-31.7,70.1-83.7,70.1s-25.5-.6-33.9-2.8v-129c7.4-1.7,20.9-3.4,40.2-3.4,48.1,0,77.5,22.6,77.5,65h-.1Z"/>
</svg>