<?xml version="1.0" encoding="UTF-8"?>
<svg id="Layer_1" xmlns="http://www.w3.org/2000/svg" width="800" height="800" version="1.1" viewBox="0 0 800 800">
  <!-- Generator: Adobe Illustrator 29.4.0, SVG Export Plug-In . SVG Version: 2.1.0 Build 152)  -->
  <defs>
    <style>
      .st0 {
        fill: #999;
        opacity: .5;
      }
    </style>
  </defs>
  <path class="st0" d="M229.7,275.7c28.2-6.9,57.3-12,89.6-15.3l1.3-1.9c17.5-24.1,36.5-47,56.8-68.3l-.2-.2c-30.1-33.2-70.8-56.7-118-65.4h0s0,0,0,0c-5.8.2-11.4,1.6-16.1,3.8-19,11.1-27.1,52.9-20.5,106.6,1.7,13.1,4.1,26.7,7.3,40.7Z"/>
  <path class="st0" d="M336.6,509.9c20.9,1.7,42,2.7,63.3,2.7s42.6-1,63.6-2.8c11.7-16.7,23-34.8,33.9-53.8,10.6-18.4,20.3-37.2,29.1-56.1-8.8-18.9-18.6-37.6-29.3-56-11-18.9-22.3-36.7-34-53.5-20.9-1.7-42-2.7-63.3-2.7h0c-21.4,0-42.6.9-63.6,2.8-11.7,16.7-23,34.7-33.9,53.7-10.6,18.4-20.4,37.3-29.1,56.2,8.8,18.9,18.6,37.6,29.3,56,11,18.8,22.3,36.8,34,53.5ZM399.8,335.8c17.8,0,33.8,7.2,45.5,18.8,11.6,11.6,18.8,27.7,18.8,45.5h0c0,35.5-28.8,64.3-64.3,64.3s-64.3-28.8-64.3-64.3,28.8-64.3,64.3-64.3Z"/>
  <path class="st0" d="M504.2,295.1h0c6.9,10.7,13.8,21.7,20.3,33,6.6,11.3,12.7,22.6,18.4,33.8,7.3-18.7,13.8-37.4,19-55.6-18.4-4.5-37.7-8.2-57.7-11.1Z"/>
  <path class="st0" d="M543,437.8c-5.8,11.3-11.8,22.7-18.3,33.9-6.5,11.4-13.4,22.5-20.3,33.3,20.1-2.9,39.6-6.7,58-11.2-5.4-18.3-11.8-37.1-19.4-56Z"/>
  <path class="st0" d="M483.6,260.6c31,3.3,61.4,8.7,86.4,15.1,3.1-14.2,5.6-28.2,7.2-41.4,6.5-53.8-1.8-95.5-21-106.5-4.5-2.3-9.6-3.7-15.1-3.7s-.7,0-1,0v-.2l-1.2.2c-46,8.5-86.6,32.2-116.8,65.8l-.3-.3c20.6,21.6,39.8,44.6,58.8,70.7l2.9.3Z"/>
  <path class="st0" d="M295.6,505c-6.9-10.7-13.7-21.7-20.3-32.9-6.6-11.3-12.7-22.5-18.4-33.8h0c-7.3,18.7-13.8,37.4-19,55.6,18.4,4.5,37.7,8.2,57.7,11.1Z"/>
  <path class="st0" d="M275.2,328.5c6.4-11.4,13.3-22.5,20.2-33.3-20.1,2.9-39.5,6.8-57.9,11.1,5.4,18.3,11.8,37.1,19.4,56,5.8-11.3,11.8-22.6,18.3-33.8Z"/>
  <path class="st0" d="M400,256.3c13.1,0,26,.4,38.7,1l-.9-1.2c-12-15.3-24.8-29.9-38.2-43.8h0c-13.4,13.9-26,28.5-38.7,45,12.8-.7,25.9-1,39.1-1Z"/>
  <path class="st0" d="M631.9,328.8c-12.4-5.2-25.6-10-39.5-14.3h0c0,0-1.2,4.7-1.2,4.7-8.6,29-19.2,57.2-29.9,80.3,11.7,26.2,21.9,53.5,31.5,85.9,13.6-4.3,26.9-9,39-14.2,49.8-21.2,82-49.1,82.2-71.2,0-22.1-32.2-49.9-82-71.2Z"/>
  <path class="st0" d="M666,1H134.1C60.9,1,1,60.9,1,134.1v531.9c0,73.2,59.9,133.1,133.1,133.1h531.9c73.2,0,133.1-59.9,133.1-133.1V134c0-73.2-59.9-133-133-133ZM601,515.8c20.4,89.2,11.5,160.3-28,183.1l.3-.2c-9.1,5.1-19.7,8.1-30.9,8.1h-1.2l-1.3-.2c-54.8-8.2-103.5-35.3-139.3-74.7l-.2.2c-35.5,39.4-84.2,66.7-140.4,75.3h0c-.5,0-1,0-1.5,0-11.1,0-21.6-2.9-30.3-7.9-39.6-22.8-48.7-94-28.4-183.5-87.8-26.8-145-70.2-145-115.9s56.9-88.8,144.5-115.8c-20.4-89.2-11.6-160.3,28-183.1l-.3.2c9.2-5.2,19.8-8.2,31.1-8.2h1l1.3.2c54.8,8.2,103.5,35.3,139.3,74.7l.2-.2c35.5-39.4,84.2-66.7,140.4-75.2h0c.3,0,.6,0,.9,0,11.2,0,21.8,3,30.6,8,39.6,22.8,48.7,94.1,28.4,183.5,87.8,26.9,145,70.2,145,116s-56.9,88.9-144.2,115.7Z"/>
  <path class="st0" d="M577.3,563.2c-1.8-14.1-4.4-27.9-7.1-38.8-28.3,6.9-57.3,12-89.6,15.4l-1.3,1.9c-17.5,24.1-36.5,47-56.8,68.2l.2.2c30.1,33.3,70.8,56.8,118,65.4h0c.5,0,1.1,0,1.6,0,5.4,0,10.4-1.4,14.7-3.7,19-11.2,27.1-52.9,20.5-106.7l-.2-2Z"/>
  <path class="st0" d="M319.4,539.8l-3-.3c-31-3.3-61.4-8.7-86.4-15h0c-3.1,14.2-5.6,28.1-7.2,41.3-6.5,53.7,1.8,95.5,21,106.5,4.7,2.4,10,3.8,15.6,3.8h.3l1.3-.2c46.1-8.5,86.8-32.2,116.9-65.8-20.5-21.5-39.6-44.4-58.5-70.3Z"/>
  <path class="st0" d="M207.1,314.6h0c-13.7,4.4-26.9,9-39,14.2-49.8,21.1-82,49.1-82,71.2s32.2,50,82,71.2l-2.6-1c12.7,5.5,25.8,10.4,42,15.4l1.2-4.7c8.7-29,19.3-57.3,30-80.3-11.8-26.2-22-53.5-31.5-85.9Z"/>
  <path class="st0" d="M399.9,543.9c-13.1,0-26-.4-38.7-1l.9,1.2c12.1,15.3,24.9,30,38.2,43.8,13.3-13.9,25.9-28.5,38.7-45-12.8.7-25.9,1-39.1,1Z"/>
</svg>