<?xml version="1.0" encoding="UTF-8"?>
<svg id="Layer_1" xmlns="http://www.w3.org/2000/svg" width="800" height="800" version="1.1" viewBox="0 0 800 800">
  <!-- Generator: Adobe Illustrator 29.4.0, SVG Export Plug-In . SVG Version: 2.1.0 Build 152)  -->
  <defs>
    <style>
      .st0 {
        fill: #999;
        opacity: .5;
      }
    </style>
  </defs>
  <path class="st0" d="M666,1H134.1C60.9,1,1,60.9,1,134.1v531.9c0,73.2,59.9,133.1,133.1,133.1h531.9c73.2,0,133.1-59.9,133.1-133.1V134c0-73.2-59.9-133-133-133ZM555.5,329.3c0-31.1,25.2-56.3,56.3-56.3s56.3,25.2,56.3,56.3-25.2,56.3-56.3,56.3h-56.4v-56.4ZM414.4,188.2c0-31.1,25.2-56.4,56.4-56.4s56.4,25.2,56.4,56.4v141.1c0,31.1-25.2,56.4-56.4,56.4s-56.4-25.2-56.4-56.4v-141.1ZM188.1,272.9h141.1c31.1,0,56.2,25.3,56.2,56.4s-25.2,56.3-56.2,56.4h-141.1c-31.1,0-56.2-25.3-56.2-56.4s25.2-56.3,56.2-56.4ZM244.4,470.8c0,31.1-25.2,56.3-56.3,56.3s-56.3-25.2-56.3-56.3,25.2-56.3,56.3-56.3h56.3v56.3ZM385.5,611.9c0,31.1-25.3,56.2-56.4,56.2s-56.3-25.2-56.4-56.2v-141.1c0-31.1,25.3-56.2,56.4-56.2s56.3,25.2,56.4,56.2v141.1ZM385.5,244.5h-56.4c-31.1,0-56.2-25.2-56.2-56.3s25.2-56.3,56.3-56.3,56.3,25.2,56.3,56.2v56.3ZM470.7,668.2c-31.1,0-56.3-25.2-56.3-56.3v-56.4h56.3c31.1,0,56.3,25.2,56.3,56.3s-25.2,56.3-56.3,56.3ZM611.8,527.2h-141.1c-31.1,0-56.4-25.2-56.4-56.4s25.2-56.4,56.4-56.4h141.1c31.1,0,56.4,25.2,56.4,56.4s-25.2,56.4-56.4,56.4Z"/>
</svg>