<?xml version="1.0" encoding="UTF-8"?>
<svg id="Layer_1" xmlns="http://www.w3.org/2000/svg" width="100" height="100" version="1.1" viewBox="0 0 100 100">
  <!-- Generator: Adobe Illustrator 29.4.0, SVG Export Plug-In . SVG Version: 2.1.0 Build 152)  -->
  <path d="M73.1,38.4c.2-.1.4-.3.5-.5.3-.6,0-1.4-.6-1.6,0,0-.7-.3-1.7-.5-.1-.6-.2-1.2-.4-1.9,1.1-.6,3.2-1.8,5.2-3.6,3.8-3.5,5.6-7.5,5-11.6-.5-4-3.5-7.5-8-9.6-3.2-1.4-6.8-2-10.5-1.7-3.4.3-6.7,1.3-9.6,3-.7-.4-2.2-1-4.2-1.4-2.6-.5-6.6-.6-11,1.7-2.1,1-3.8,1.5-5.3,2-2.6.8-4.4,1.4-6.3,4-.4.5-.8,1.2-1.1,1.9,0,.1-.1.2-.2.3-.7,1.3-1.5,2.6-2.3,3.8-2.4,3.7-4.7,7.2-3.7,12.8,1,5.8,2.1,8,2.6,8.7-.8,1.8-.6,4.2.5,7.1,1.6,4.1,3.7,5.8,5.2,6.4.6.2,1.2.4,1.7.5.3,3.3,1.1,15.9-4,21.7l-.5.6.4.6c1.6,2.3,4.4,4.8,7.4,6.8,2.7,1.8,7.1,4.1,12.2,4.6.9,0,1.7.1,2.6.1,5.4,0,10.5-2,15-6l.3-.3v-.4c0-4.7.3-10.2.5-12,2.9-.9,4-3,5.4-5.6.5-.9,1-1.8,1.6-2.9,2.5-4.1,3.2-10.1,2.6-14.6,0,0,.2,0,.2,0,3.5-1.5,3.5-7.3,4.4-8.2l.9-.9.5-2-.7-.2s-1.7-.7-4.7-.8ZM62.8,9.3c3.4-.3,6.7.2,9.5,1.5,4,1.8,6.5,4.7,6.9,8.1.5,3.6-1,6.9-4.4,10-.8.7-1.6,1.3-2.3,1.8.8-3.9-2.3-7.7-4.6-7.6-1.8-6.2-10.1-6-15.4-5.2-2.2,0-4.2.2-6.1.4,2.1-2.2,4.2-3.9,6-5.2,3.1-2.1,6.6-3.4,10.3-3.7ZM27.3,18.5c1.7-2.8,3.1-3.2,5.8-4.1,1.4-.5,3.3-1,5.5-2.1h0c3.1-1.7,6.3-2.2,9.7-1.5,1.1.2,2.1.5,2.8.8-2.4,1.7-5,4-7.7,7-.4.4-.8.9-1.2,1.3-.3.3-.6.7-.9,1-2.2,2.6-4.5,5.6-6.9,8.9-2,2.9-3.8,5.6-5.2,7.7-4.9-9.4-3-16.6-2-19.2ZM20.8,35.2c-.8-4.8.9-7.7,3.2-11.2-.3,4,.4,9.5,4,15.7-.1.2-.2.3-.3.5-.3.4-.5.8-.7,1.1-.2.3-.3.5-.4.7-.2-.2-.6-.3-.9-.3-1.2,0-2.2.4-3,1-.5-1-1.3-3.3-2-7.4ZM60.6,85.5c-4.8,4.1-10.1,5.8-15.8,5.2-8.1-.9-15-6.4-17.9-10.1,4.6-5.9,4.5-16.4,4.1-21.1,3.9,7.9,9.2,11.7,14.3,13.5,1.6,2,6,5.7,15.6,4.6-.1,2.3-.3,5.2-.2,7.9ZM68.4,64.4c-.7,1.1-1.2,2.1-1.6,3-1.4,2.7-2.3,4.3-4.8,4.9,0,0,0,0-.1,0-.6.1-1.3.2-2.1.3-.3,0-.7,0-1.1,0-3.3.2-8.2.4-13.2-1.5-5.9-2.3-10.5-7.1-13.7-14.4l-.4-.8-.8.3c-.1,0-.4.1-.8.2,0,0,0,0,0,0-.5,0-1.1,0-1.7-.3-1.2-.5-2.9-1.9-4.2-5.4-.4-1.1-.7-2.2-.8-3.1.1,0,.2-.1.3-.2.4-.3,1.1-.8,2.1-.6.4,0,1,.3,1.6.9-.3.6-.7,1.7-.4,2.9.3,1,1,1.9,2.1,2.5.1,0,.2,0,.4,0,.3,0,.6-.2.7-.4.2-.4,0-.9-.3-1.1-.7-.4-1.2-.9-1.3-1.5-.1-.4,0-.9,0-1.2.5.6,1,1.4,1.6,2.5.1.3.4.4.7.4s.3,0,.4,0c.4-.2.5-.7.3-1.1-.8-1.5-1.7-2.8-2.6-3.7,0,0,0,0,0,0-.9-.9-1.8-1.5-2.7-1.7-1.2-.3-2.1,0-2.7.4.1-.6.3-1,.6-1.4.7-.8,1.9-1.1,3.4-.7,0,0,0,0,0,0,0,0,0,0,0,0,.3,0,.7,0,.9-.3,0,0,0,0,0,0l2.5,4.5s3-.3,3-1.6c-.2-1-.3-2-.3-2.8l7.3-1.9c.5-.1.8-.7.6-1.2-.2-.6-.4-1.1-.5-1.5,0-.3-.3-.4-.6-.4l-6,.9c1.5-3.2,4.5-3.5,4.5-3.5,0,0-.6-1.2,0-8.2.3-.4.6-.8.9-1.2,6.9-5,13.9-5.7,19-5.2.4.2.7.3,1.1.5,4.2,2.2,7.2,5.6,8.8,10.1.5,1.4.8,2.7,1,3.8-1.3,0-2.8.2-4.2,1.1-.6.3-.8,1.1-.5,1.7.2.4.6.6,1.1.6.2,0,.4,0,.6-.2,1.1-.7,2.3-.8,3.4-.7,0,.1,0,.3,0,.4-1.5.1-3.2.4-5.2.8-3,.5-1.1.5-7.5-.9-4.8-1-8-1.2-11-.9,1.7-.8,3.6-1.1,5.7-.9,2.4.2,4.1,1,4.2,1,.6.3,1.4,0,1.6-.6.3-.6,0-1.4-.6-1.6-.3-.2-8.3-3.6-14.6,1.6-.3.2-.4.6-.4.9,0,0,0,.1,0,.2,0,.1,0,.2,0,.4.1.5.3,1,.6,1.7.2.4.7.6,1.1.5h.2c0,0,1.4.3,1.4.3,0,0-.4,7,1.8,8.4s9.7,3.1,12.8-3.1c1.2-2.4,1.9-3.5,2.3-4l2.9,8c.3.9,0,1.9-.8,2.4l-1.7,1.1c-.4.3-.6.8-.3,1.3.2.3.5.5.8.5s.4,0,.5-.2l1.8-1.1c1.3-.8,1.9-2.3,1.7-3.8,1,.6,2.1,1.1,3.7.9.6,4.1,0,9.5-2.3,13.2ZM71.6,38.4s0,0,0,0c0,0,0,0,0,0,0,0,0,0,0,0Z"/>
  <path d="M65.6,58.9c0,0-8,3.1-15.3-2.2-.4-.3-1-.2-1.3.2-.3.4-.2,1,.2,1.3,3.8,2.8,7.8,3.5,10.7,3.5s.6,0,.9,0c3.2-.1,5.4-1,5.5-1.1.5-.2.7-.7.5-1.2-.2-.5-.7-.7-1.2-.5Z"/>
  <path d="M57.8,54c.1,0,.3,0,.4-.1.8-.6,1.6,0,1.7,0,.3.2.7.2.9-.1.2-.3.2-.7-.1-.9-.6-.4-2-1-3.3,0-.3.2-.3.6-.1.9.1.2.3.3.5.3Z"/>
</svg>