<?xml version="1.0" encoding="UTF-8"?>
<svg id="Layer_1" xmlns="http://www.w3.org/2000/svg" width="139.8" height="26" version="1.1" viewBox="0 0 139.8 26">
  <!-- Generator: Adobe Illustrator 29.4.0, SVG Export Plug-In . SVG Version: 2.1.0 Build 152)  -->
  <defs>
    <style>
      .st0 {
        fill: #79c27d;
      }

      .st1 {
        fill: #0a0a0a;
      }
    </style>
  </defs>
  <path class="st1" d="M0,0l8.5,13.3H0v12.7h8.5v-12.6l8,12.6h8.5L8.5,0H0Z"/>
  <path class="st0" d="M25,6.7c0-3.7-2.9-6.7-6.5-6.7h-1.5v13.3h1.5c3.6,0,6.5-3,6.5-6.7h0Z"/>
  <g>
    <path d="M38.4,6.1h6.7c1.5,0,2.7.3,3.4,1,.8.6,1.1,1.6,1.1,2.8s0,1.2-.3,1.7c-.2.4-.4.8-.7,1-.2.2-.5.5-.8.6-.2,0-.5.2-.6.2h0c.2,0,.4.2.6.2s.5.2.6.5c.2.2.4.6.5.9.2.4.2.8.2,1.4,0,.8,0,1.6.2,2.2s.3,1.1.6,1.4h-2.6c-.2-.3-.3-.6-.3-1v-1c0-.6,0-1.2,0-1.7,0-.5-.2-.9-.4-1.1-.2-.3-.5-.6-.9-.6-.3-.2-.8-.2-1.4-.2h-3.6v5.8h-2.5V6.1h.2ZM40.8,12.4h4c.8,0,1.4-.2,1.8-.6s.6-1,.6-1.7,0-.8-.2-1.1-.3-.5-.6-.6c-.2-.2-.5-.2-.8-.3h-4.9v4.4h0Z"/>
    <path d="M56.3,20.3c-.8,0-1.5-.2-2.2-.4s-1.2-.6-1.6-1.1-.8-1-1-1.7c-.2-.6-.3-1.4-.3-2.2s0-1.5.3-2.2c.2-.6.6-1.2,1-1.7s1-.9,1.6-1.1c.6-.2,1.4-.4,2.2-.4s1.5.2,2.2.4,1.2.6,1.6,1.1c.4.5.8,1,1,1.7s.3,1.4.3,2.2,0,1.5-.3,2.2-.6,1.2-1,1.7c-.4.5-1,.8-1.6,1.1-.6.2-1.4.4-2.2.4ZM56.3,18.6c.5,0,1,0,1.3-.3.4-.2.6-.5.9-.8s.4-.7.5-1.1.2-.9.2-1.3,0-.9-.2-1.3-.3-.8-.5-1.1-.6-.6-.9-.8c-.4-.2-.8-.3-1.3-.3s-1,0-1.3.3c-.4.2-.6.5-.9.8s-.4.7-.5,1.1-.2.9-.2,1.3,0,.9.2,1.3.3.8.5,1.1c.2.3.6.6.9.8.4.2.8.3,1.3.3Z"/>
    <path d="M63,9.9h2.1v1.4h0c.2-.2.3-.5.6-.7.2-.2.4-.4.6-.6s.5-.2.8-.3.6-.2,1-.2c.6,0,1.2.2,1.7.4.6.2.9.7,1.1,1.3.4-.6.8-1,1.3-1.2.5-.3,1.1-.5,1.8-.5,1,0,1.9.2,2.5.8s.9,1.4.9,2.6v7h-2.2v-7.1c0-.3,0-.6-.2-.9-.2-.2-.3-.4-.6-.6-.2-.2-.6-.2-1-.2-.7,0-1.3.2-1.7.7-.3.5-.5,1.1-.5,2v5.9h-2.2v-6.5c0-.7-.2-1.2-.4-1.6-.2-.3-.7-.6-1.4-.6s-.6,0-.8.2c-.2,0-.5.3-.7.5s-.4.5-.5.8c-.2.3-.2.7-.2,1.1v6h-2.2v-10.2l.3.2Z"/>
    <path d="M84.7,15.4c0,.6,0,1,.2,1.4.2.4.4.7.8,1,.3.2.7.4,1.1.6.4,0,.9.2,1.4.2s1,0,1.4-.2.7-.3,1-.5.4-.4.5-.6.2-.5.2-.8c0-.6-.2-1-.4-1.2s-.5-.4-.8-.6c-.5-.2-1-.3-1.8-.5-.6-.2-1.4-.4-2.5-.6-.6-.2-1.1-.4-1.5-.6s-.7-.6-1-.9-.4-.6-.5-1-.2-.7-.2-1c0-.7.2-1.3.5-1.8.3-.5.7-1,1.2-1.3s1-.6,1.7-.7,1.2-.2,1.8-.2,1.4,0,2.1.3c.6.2,1.2.5,1.7.9s.9.9,1.2,1.4c.3.6.4,1.2.4,1.9h-2.5c0-.9-.4-1.5-1-1.9s-1.3-.6-2.1-.6-.6,0-.9,0c-.3,0-.6.2-.8.3-.2.2-.5.3-.6.6s-.2.6-.2.9.2.9.5,1.2.7.5,1.2.6c0,0,.2,0,.6.2.3,0,.8.2,1.2.3s.9.2,1.3.3c.4,0,.7.2.9.2.5.2.9.3,1.2.6s.6.6.9.9c.2.3.4.6.5,1s.2.7.2,1.1c0,.8-.2,1.4-.5,2s-.7,1-1.3,1.4-1.1.6-1.8.8-1.4.2-2,.2-1.5,0-2.2-.3c-.7-.2-1.3-.5-1.8-.9-.6-.4-1-1-1.3-1.5-.3-.6-.5-1.4-.5-2.2h2.5v-.3Z"/>
    <path d="M94.3,9.9h1.7v-3h2.2v3h2v1.7h-2v6.1c0,.2,0,.3.2.4,0,0,.2.2.3.2s.3,0,.6,0h1v1.8h-1.4c-.6,0-1,0-1.4-.2-.4,0-.6-.2-.9-.5-.2-.2-.3-.5-.4-.8,0-.3,0-.7-.2-1.1v-6h-1.7v-1.7h0Z"/>
    <path d="M110.5,20h-2.2v-1.4h0c-.2.5-.7.9-1.2,1.2-.6.3-1.1.5-1.7.5-1.4,0-2.3-.3-2.9-1-.6-.6-.9-1.7-.9-3v-6.4h2.2v6.3c0,.9.2,1.5.5,1.9s.8.6,1.4.6.9,0,1.2-.2c.3-.2.6-.3.8-.6.2-.2.3-.6.4-.9s.2-.7.2-1.1v-5.9h2.2v10.2h-.2Z"/>
    <path d="M122.2,20h-2.1v-1.4h0c-.3.6-.7,1-1.3,1.3-.6.2-1.2.4-1.8.4s-1.5-.2-2.1-.4c-.6-.3-1.1-.6-1.4-1.1-.4-.5-.7-1-.9-1.7s-.3-1.4-.3-2.2.2-1.7.4-2.4c.2-.6.6-1.2,1-1.7.4-.4.9-.7,1.4-1s1-.3,1.6-.3.6,0,1,0c.3,0,.6.2,1,.3s.6.3.8.5.5.5.6.7h0v-5.2h2.2v14h0ZM114.5,15.1c0,.4,0,.9.2,1.3,0,.4.3.8.5,1.1s.6.6.9.8.8.3,1.3.3,1,0,1.3-.3c.3-.2.6-.5.9-.8s.4-.7.5-1.1.2-.9.2-1.3c0-1.1-.2-2-.7-2.6s-1.2-1-2.1-1-1,0-1.4.3-.6.5-.9.9c-.2.3-.4.7-.5,1.2s-.2.9-.2,1.4v-.2Z"/>
    <path d="M124.5,6.1h2.2v2.1h-2.2v-2.1ZM124.5,9.9h2.2v10.2h-2.2s0-10.2,0-10.2Z"/>
    <path d="M133.5,20.3c-.8,0-1.5-.2-2.2-.4s-1.2-.6-1.6-1.1-.8-1-1-1.7c-.2-.6-.3-1.4-.3-2.2s0-1.5.3-2.2.6-1.2,1-1.7c.4-.5,1-.9,1.6-1.1.6-.2,1.4-.4,2.2-.4s1.5.2,2.2.4,1.2.6,1.6,1.1c.4.5.8,1,1,1.7s.3,1.4.3,2.2,0,1.5-.3,2.2c-.2.6-.6,1.2-1,1.7-.4.5-1,.8-1.6,1.1s-1.4.4-2.2.4ZM133.5,18.6c.5,0,1,0,1.3-.3.4-.2.6-.5.9-.8s.4-.7.5-1.1.2-.9.2-1.3,0-.9-.2-1.3-.3-.8-.5-1.1-.6-.6-.9-.8c-.4-.2-.8-.3-1.3-.3s-1,0-1.3.3c-.4.2-.6.5-.9.8s-.4.7-.5,1.1-.2.9-.2,1.3,0,.9.2,1.3.3.8.5,1.1c.2.3.6.6.9.8.4.2.8.3,1.3.3Z"/>
  </g>
</svg>