<?xml version="1.0" encoding="UTF-8"?>
<svg id="Layer_1" xmlns="http://www.w3.org/2000/svg" width="172" height="26" version="1.1" viewBox="0 0 172 26">
  <!-- Generator: Adobe Illustrator 29.1.0, SVG Export Plug-In . SVG Version: 2.1.0 Build 142)  -->
  <defs>
    <style>
      .st0 {
        fill: #79c27d;
      }

      .st1 {
        fill: #0a0a0a;
      }
    </style>
  </defs>
  <path class="st1" d="M0,0l8.5,13.3H0v12.7h8.5v-12.6l8,12.6h8.5L8.5,0H0Z"/>
  <path class="st0" d="M25,6.7c0-3.7-2.9-6.7-6.5-6.7h-1.5v13.3h1.5c3.6,0,6.5-3,6.5-6.7Z"/>
  <g>
    <path d="M38,4.3h8.4c1.9,0,3.4.4,4.3,1.3,1,.8,1.4,2,1.4,3.5s-.1,1.5-.4,2.1c-.2.5-.5,1-.9,1.3-.3.3-.6.6-1,.7-.3.1-.6.2-.7.3h0c.3,0,.5.2.8.3.3.1.6.3.8.6.3.3.5.7.6,1.1.2.5.3,1,.3,1.7,0,1,0,2,.2,2.8.2.8.4,1.4.7,1.8h-3.3c-.2-.4-.4-.8-.4-1.3,0-.5,0-.9,0-1.3,0-.8,0-1.5-.1-2.1,0-.6-.3-1.1-.5-1.4-.3-.4-.6-.7-1.1-.8-.4-.2-1-.3-1.7-.3h-4.5v7.2h-3.1V4.3ZM41,12.2h5c1,0,1.7-.2,2.2-.7.5-.5.8-1.2.8-2.1s0-1-.2-1.4c-.2-.4-.4-.6-.7-.8-.3-.2-.6-.3-1-.4-.4,0-.7,0-1.1,0h-5v5.5Z"/>
    <path d="M60.3,22.1c-1,0-1.9-.2-2.7-.5s-1.5-.8-2-1.4c-.5-.6-1-1.3-1.2-2.1-.3-.8-.4-1.7-.4-2.7s.1-1.9.4-2.7c.3-.8.7-1.5,1.2-2.1.5-.6,1.2-1.1,2-1.4.8-.3,1.7-.5,2.7-.5s1.9.2,2.7.5c.8.3,1.5.8,2,1.4.5.6,1,1.3,1.3,2.1s.4,1.7.4,2.7-.1,1.9-.4,2.7c-.3.8-.7,1.5-1.3,2.1-.5.6-1.2,1-2,1.4-.8.3-1.7.5-2.7.5ZM60.3,19.9c.6,0,1.2-.1,1.6-.4.5-.3.8-.6,1.1-1,.3-.4.5-.9.6-1.4s.2-1.1.2-1.6,0-1.1-.2-1.6-.4-1-.6-1.4-.7-.8-1.1-1c-.5-.3-1-.4-1.6-.4s-1.2.1-1.6.4c-.5.3-.8.6-1.1,1s-.5.9-.6,1.4-.2,1.1-.2,1.6,0,1.1.2,1.6.4,1,.6,1.4c.3.4.7.8,1.1,1,.5.3,1,.4,1.6.4Z"/>
    <path d="M68.7,9.1h2.6v1.8h0c.2-.3.4-.6.7-.9.2-.3.5-.5.8-.7.3-.2.6-.3,1-.4s.8-.2,1.3-.2c.8,0,1.5.2,2.1.5.7.3,1.1.9,1.4,1.6.5-.7,1-1.2,1.6-1.5.6-.4,1.4-.6,2.3-.6,1.3,0,2.4.3,3.1,1,.7.7,1.1,1.7,1.1,3.3v8.7h-2.8v-7.4c0-.5,0-1,0-1.4,0-.4-.1-.8-.3-1.1-.2-.3-.4-.5-.7-.7-.3-.2-.7-.2-1.3-.2-.9,0-1.6.3-2.1.9-.4.6-.6,1.4-.6,2.5v7.4h-2.8v-8.1c0-.9-.2-1.5-.5-2-.3-.4-.9-.7-1.8-.7s-.7,0-1,.2c-.3.1-.6.4-.9.6s-.5.6-.6,1c-.2.4-.2.9-.2,1.4v7.5h-2.8v-12.7Z"/>
    <path d="M95.8,15.9c0,.7.1,1.2.3,1.7.2.5.5.9,1,1.2.4.3.9.5,1.4.7.5.1,1.1.2,1.7.2s1.2,0,1.7-.2c.5-.2.9-.4,1.2-.6s.5-.5.6-.8.2-.6.2-1c0-.7-.2-1.2-.5-1.5-.3-.3-.6-.5-1-.7-.6-.2-1.3-.4-2.2-.6-.8-.2-1.8-.5-3.1-.8-.8-.2-1.4-.5-1.9-.8-.5-.3-.9-.7-1.2-1.1s-.5-.8-.6-1.2c-.1-.4-.2-.9-.2-1.3,0-.9.2-1.6.6-2.3.4-.6.9-1.2,1.5-1.6.6-.4,1.3-.7,2.1-.9s1.5-.3,2.3-.3,1.8.1,2.6.4c.8.2,1.5.6,2.1,1.1s1.1,1.1,1.5,1.8c.4.7.5,1.5.5,2.4h-3.1c0-1.1-.5-1.9-1.2-2.4-.7-.5-1.6-.7-2.6-.7s-.7,0-1.1.1c-.4,0-.7.2-1,.4-.3.2-.6.4-.8.7s-.3.7-.3,1.1.2,1.1.6,1.5c.4.4.9.6,1.5.8,0,0,.3,0,.8.2.4.1,1,.3,1.5.4s1.1.3,1.6.4c.5.1.9.2,1.1.3.6.2,1.1.4,1.5.7.4.3.8.7,1.1,1.1.3.4.5.8.6,1.3.1.5.2.9.2,1.4,0,1-.2,1.8-.6,2.5-.4.7-.9,1.3-1.6,1.7s-1.4.8-2.2,1-1.7.3-2.5.3-1.9-.1-2.8-.4c-.9-.2-1.6-.6-2.3-1.1-.7-.5-1.2-1.2-1.6-1.9-.4-.8-.6-1.7-.6-2.8h3.1Z"/>
    <path d="M107.8,9.1h2.1v-3.8h2.8v3.8h2.5v2.1h-2.5v6.8c0,.3,0,.5,0,.8,0,.2,0,.4.2.5,0,.1.2.3.4.3s.4.1.7.1.4,0,.6,0,.4,0,.6,0v2.2c-.3,0-.6,0-.9,0-.3,0-.6,0-.9,0-.7,0-1.3,0-1.8-.2-.5-.1-.8-.3-1.1-.6-.3-.3-.4-.6-.5-1,0-.4-.1-.9-.2-1.4v-7.5h-2.1v-2.1Z"/>
    <path d="M128,21.7h-2.7v-1.8h0c-.3.6-.9,1.1-1.5,1.5-.7.4-1.4.6-2.1.6-1.7,0-2.9-.4-3.6-1.2-.7-.8-1.1-2.1-1.1-3.7v-8h2.8v7.8c0,1.1.2,1.9.6,2.4.4.5,1,.7,1.8.7s1.1,0,1.5-.3c.4-.2.7-.4,1-.7.2-.3.4-.7.5-1.1.1-.4.2-.9.2-1.4v-7.4h2.8v12.7Z"/>
    <path d="M142.6,21.7h-2.6v-1.7h0c-.4.7-.9,1.3-1.6,1.6-.7.3-1.5.5-2.3.5s-1.9-.2-2.6-.5c-.7-.4-1.4-.8-1.8-1.4-.5-.6-.9-1.3-1.1-2.1s-.4-1.7-.4-2.7.2-2.1.5-3c.3-.8.7-1.5,1.2-2.1.5-.5,1.1-.9,1.8-1.2.7-.3,1.3-.4,2-.4s.8,0,1.2.1c.4,0,.8.2,1.2.4s.7.4,1,.6.6.6.8.9h0v-6.5h2.8v17.5ZM132.9,15.5c0,.5,0,1.1.2,1.6.1.5.4,1,.6,1.4s.7.7,1.1,1,1,.4,1.6.4,1.2-.1,1.6-.4c.4-.3.8-.6,1.1-1,.3-.4.5-.9.6-1.4.1-.5.2-1.1.2-1.6,0-1.4-.3-2.5-.9-3.3s-1.5-1.2-2.6-1.2-1.2.1-1.7.4-.8.6-1.1,1.1c-.3.4-.5.9-.6,1.5s-.2,1.1-.2,1.7Z"/>
    <path d="M145.4,4.3h2.8v2.6h-2.8v-2.6ZM145.4,9.1h2.8v12.7h-2.8v-12.7Z"/>
    <path d="M156.7,22.1c-1,0-1.9-.2-2.7-.5-.8-.3-1.5-.8-2-1.4-.5-.6-1-1.3-1.3-2.1-.3-.8-.4-1.7-.4-2.7s.1-1.9.4-2.7.7-1.5,1.3-2.1c.5-.6,1.2-1.1,2-1.4.8-.3,1.7-.5,2.7-.5s1.9.2,2.7.5c.8.3,1.5.8,2,1.4.5.6,1,1.3,1.3,2.1s.4,1.7.4,2.7-.1,1.9-.4,2.7c-.3.8-.7,1.5-1.3,2.1-.5.6-1.2,1-2,1.4s-1.7.5-2.7.5ZM156.7,19.9c.6,0,1.2-.1,1.6-.4.5-.3.8-.6,1.1-1,.3-.4.5-.9.6-1.4s.2-1.1.2-1.6,0-1.1-.2-1.6-.4-1-.6-1.4-.7-.8-1.1-1c-.5-.3-1-.4-1.6-.4s-1.2.1-1.6.4c-.5.3-.8.6-1.1,1-.3.4-.5.9-.6,1.4s-.2,1.1-.2,1.6,0,1.1.2,1.6.4,1,.6,1.4c.3.4.7.8,1.1,1,.5.3,1,.4,1.6.4Z"/>
  </g>
</svg>